<svg xmlns="http://www.w3.org/2000/svg" viewBox="0 0 426.36 426.36"><defs><style>.cls-1{fill:#0ac497;}.cls-2{fill:none;}</style></defs><title>Asset 18</title><g id="Layer_2" data-name="Layer 2"><g id="Layer_1-2" data-name="Layer 1"><path class="cls-1" d="M359.17,269.18h17.47c3.54,0,6.4-3.85,6.4-8.6s-2.86-8.59-6.4-8.59H359.17c-3.54,0-6.4,3.85-6.4,8.59S355.63,269.18,359.17,269.18Z"/><path class="cls-1" d="M365.5,227.35c0-4.75-2.92-8.6-6.5-8.6H333.24c-3.59,0-6.5,3.85-6.5,8.6s2.91,8.6,6.5,8.6H359C362.58,236,365.5,232.1,365.5,227.35Z"/><path class="cls-1" d="M300.16,252c-2.32,0-4.21,3.85-4.21,8.59s1.89,8.6,4.21,8.6h37.17c2.32,0,4.21-3.85,4.21-8.6s-1.89-8.59-4.21-8.59Z"/><path class="cls-1" d="M392.87,287.53H375.12c-3.59,0-6.5,3.85-6.5,8.59s2.91,8.6,6.5,8.6h17.75c3.59,0,6.5-3.85,6.5-8.6S396.46,287.53,392.87,287.53Z"/><path class="cls-1" d="M372.59,201.56c3.59,0,6.5-3.85,6.5-8.6s-2.91-8.6-6.5-8.6H354.83c-3.58,0-6.5,3.85-6.5,8.6s2.92,8.6,6.5,8.6Z"/><path class="cls-1" d="M403.07,184.36H392c-2.25,0-4.07,3.85-4.07,8.6s1.82,8.6,4.07,8.6h11.09c2.25,0,4.07-3.85,4.07-8.6S405.32,184.36,403.07,184.36Z"/><path class="cls-1" d="M422.3,287.53H411.2c-2.24,0-4.06,3.85-4.06,8.59s1.82,8.6,4.06,8.6h11.1c2.24,0,4.06-3.85,4.06-8.6S424.54,287.53,422.3,287.53Z"/><path class="cls-1" d="M387.4,78.64c-20.69-13.31-54.85-7.5-68,21.33s-31.72,66.14-56.68,78.12c-16.55,7.94-50.31,3.32-83.93,3.56s-61.67,11.78-61.67,11.78-2.16-6.31-9.14-14.6S84.23,167.41,70.7,172,48.59,193.69,48.52,197a12.71,12.71,0,0,0,2.16,6.46s-.84,5.41-.08,9,5.39,4.25,6.75,5.69.25,9.13,1,11.39a12.72,12.72,0,0,0,4.75,5.73c1.61,1,9.1,6,14.34,5.33s12.9-8.17,12.9-8.17l8.73,6s.3,39.87-8,52.1c-19.11,12.34-49.3,41.75-59.6,44.17-9.72,1.76-19.11,1.94-21.18,3S-.1,342.55,0,345.81c.06,1.81,3.63,2.06,6.9,2.41,11.3-6.81,20.72,4.41,34.26.82,8.3-3.88,75.94-40.45,76.83-46.21,4.39-8.3,6-50.56,6-50.56s17.24,15.28,20.36,32.76c2.61,14.59,20.78,38,15.6,50.09-3,3.87-16.45,2.69-25.35,7.68-2.57.15-8.64,4.2-6.44,7.61-.24.61,1.26,5.54,5.72,1.6,6.3-5.58,16.08,1.36,34.26.07a12.28,12.28,0,0,0,6.24-1.85s15-.51,24.58,1.69c4.61-.05,16.09-3.76,17.21-10.9,1.92-21.68-9.95-38-10.22-47.19,1.94,5.23,4.52,9.83,7.9,12.07,10.62,7,44.1-.81,57.81,6.9-2.06,5.42,6.31,16.16,7.42,24.95-7.65,5.61-14.5,6.23-16.92,7.51S257,350,260.3,350.5c3.14.77,12.57,5.83,19.6,3.32,2.92-.86,8.54-2.81,15.51-12.5.77-3.18-2.73-13.86-3.65-24.77a127.1,127.1,0,0,1-.13-12.71H350.5c5.32,0,9.63-3.85,9.63-8.6s-4.31-8.59-9.63-8.59h-91c-5.33,0-9.65-3.85-9.65-8.6,0-4,3.11-7.37,7.3-8.31,0-.09,0-.19,0-.29h21.39c3.59,0,6.5-3.84,6.5-8.59s-2.91-8.6-6.5-8.6H241.84c-5.33,0-9.65-3.85-9.65-8.6s4.32-8.59,9.65-8.59h71.89c3.59,0,6.5-3.85,6.5-8.6s-2.91-8.6-6.5-8.6H256.37c-.12,0-.22,0-.34,0l0-.3c-2.86-.9-5-4.28-5-8.34,0-4.75,2.91-8.6,6.5-8.6h73.33c3.59,0,6.5-3.85,6.5-8.6s-2.91-8.59-6.5-8.59H297.36A108,108,0,0,0,316,154c18.79-43.2,26.22-63.73,47.19-65.7,17.65-1.66,31.38,19.62,24.1,34.75-5.72,11.89-24.09,15.25-24.39,4.84s-13.79-17-16.12-.24,25.52,35.4,47.34,14S408.09,92,387.4,78.64ZM180.61,337.81c.76-15.77-6.22-28.4-6.32-40.76,11,6.13,22.6,24,22.06,36.89C192.26,337.37,181.08,341.8,180.61,337.81Zm38.12-85.55h-11.1c-2.24,0-4.06-3.85-4.06-8.6s1.82-8.59,4.06-8.59h11.1c2.24,0,4.06,3.85,4.06,8.59S221,252.26,218.73,252.26Zm19-34.39H226.65c-2.25,0-4.07-3.85-4.07-8.59s1.82-8.6,4.07-8.6h11.09c2.25,0,4.07,3.85,4.07,8.6S240,217.87,237.74,217.87Z"/><rect class="cls-2" width="426.36" height="426.36"/></g></g></svg>